<svg version="1.1" xmlns="http://www.w3.org/2000/svg" xmlns:xlink="http://www.w3.org/1999/xlink" width="512.000000pt" height="512.000000pt" viewBox="0,0,256,256"><g fill="#726dfe" fill-rule="nonzero" stroke="none" stroke-width="1" stroke-linecap="butt" stroke-linejoin="miter" stroke-miterlimit="10" stroke-dasharray="" stroke-dashoffset="0" font-family="none" font-weight="none" font-size="none" text-anchor="none" style="mix-blend-mode: normal"><g><g><g transform="scale(0.5,0.5)"><g transform="translate(0,512) scale(0.1,-0.1)"><path d="M2241,5102c-19,-9 -44,-30 -55,-45c-20,-27 -21,-44 -24,-285c-2,-230 -1,-261 15,-292c22,-42 76,-80 114,-80h29v-99c0,-84 3,-102 21,-125c15,-20 29,-26 57,-26c34,0 47,10 162,125l125,125h240c264,0 286,4 329,63c20,27 21,41 21,297c0,256 -1,270 -21,297c-46,63 -44,63 -534,63c-404,0 -448,-2 -479,-18zM2455,4775c50,-49 15,-135 -55,-135c-41,0 -80,39 -80,80c0,41 39,80 80,80c19,0 40,-9 55,-25zM2775,4775c16,-15 25,-36 25,-55c0,-19 -9,-40 -25,-55c-15,-16 -36,-25 -55,-25c-19,0 -40,9 -55,25c-16,15 -25,36 -25,55c0,19 9,40 25,55c15,16 36,25 55,25c19,0 40,-9 55,-25zM3095,4775c16,-15 25,-36 25,-55c0,-19 -9,-40 -25,-55c-15,-16 -36,-25 -55,-25c-19,0 -40,9 -55,25c-16,15 -25,36 -25,55c0,19 9,40 25,55c15,16 36,25 55,25c19,0 40,-9 55,-25z"></path><path d="M321,4142c-19,-9 -44,-30 -55,-45c-20,-27 -21,-44 -24,-315c-2,-186 1,-300 8,-324c13,-46 60,-86 111,-94l39,-7v-97c0,-83 3,-101 21,-124c15,-20 29,-26 57,-26c34,0 47,10 162,125l125,125h240c264,0 286,4 329,63c20,27 21,41 21,337c0,296 -1,310 -21,337c-46,63 -44,63 -534,63c-404,0 -448,-2 -479,-18zM538,3794c28,-31 28,-64 1,-98c-16,-20 -29,-26 -59,-26c-65,0 -101,66 -64,118c33,47 82,49 122,6zM858,3794c28,-31 28,-64 1,-98c-16,-20 -29,-26 -59,-26c-65,0 -101,66 -64,118c33,47 82,49 122,6zM1178,3794c28,-31 28,-64 1,-98c-16,-20 -29,-26 -59,-26c-65,0 -101,66 -64,118c33,47 82,49 122,6z"></path><path d="M3921,4142c-19,-9 -44,-30 -55,-45c-20,-27 -21,-41 -21,-337c0,-296 1,-310 21,-337c43,-59 65,-63 329,-63h240l125,-125c115,-115 128,-125 162,-125c28,0 42,6 57,26c18,23 21,41 21,124v97l39,7c51,8 98,48 111,94c7,24 10,138 8,324c-3,271 -4,288 -24,315c-46,63 -44,63 -534,63c-404,0 -448,-2 -479,-18zM4139,3794c27,-35 26,-66 -2,-100c-17,-20 -33,-27 -57,-27c-24,0 -40,7 -57,27c-28,34 -29,65 -2,100c16,20 29,26 59,26c30,0 43,-6 59,-26zM4459,3794c12,-15 21,-37 21,-49c0,-12 -9,-34 -21,-49c-16,-20 -29,-26 -59,-26c-30,0 -43,6 -59,26c-12,15 -21,37 -21,49c0,12 9,34 21,49c16,20 29,26 59,26c30,0 43,-6 59,-26zM4779,3794c12,-15 21,-37 21,-49c0,-12 -9,-34 -21,-49c-16,-20 -29,-26 -59,-26c-30,0 -43,6 -59,26c-12,15 -21,37 -21,49c0,12 9,34 21,49c16,20 29,26 59,26c30,0 43,-6 59,-26z"></path><path d="M2468,3907c-99,-37 -150,-83 -199,-177c-20,-37 -24,-60 -24,-130c0,-78 3,-90 34,-148c38,-70 70,-101 145,-140c43,-22 64,-26 136,-26c73,0 92,4 137,27c66,34 116,84 150,150c23,45 27,64 27,137c0,70 -4,93 -23,130c-62,119 -154,181 -275,187c-44,2 -85,-2 -108,-10z"></path><path d="M2253,3106c-67,-17 -78,-24 -265,-184c-129,-111 -161,-144 -177,-183c-50,-114 -131,-357 -131,-389c1,-77 84,-160 160,-160c39,1 106,35 126,65c9,14 42,95 73,179l56,153l73,62l72,62v-291v-291l25,-24l24,-25h269c251,0 271,1 293,19c24,19 24,21 29,284l5,264l85,-48l84,-49h217c208,0 217,1 249,23c57,38 75,71 75,137c0,66 -18,99 -75,138c-31,21 -43,22 -203,22h-170l-166,107c-210,135 -228,143 -318,143h-72l24,-25l25,-24v-229c0,-217 -1,-231 -21,-256c-16,-20 -29,-26 -59,-26c-30,0 -43,6 -59,26c-20,25 -21,39 -21,256v229l25,24l24,25l-112,-1c-62,0 -135,-6 -164,-13z"></path><path d="M243,2746c-89,-29 -176,-107 -216,-194c-31,-66 -30,-197 0,-264c32,-70 103,-141 176,-174c53,-25 74,-29 147,-29c73,0 93,4 142,28c69,34 131,94 166,162c24,44 27,61 27,145c0,81 -4,103 -25,145c-33,67 -99,131 -168,163c-68,31 -184,40 -249,18z"></path><path d="M4663,2742c-156,-56 -241,-184 -231,-346c8,-124 79,-225 196,-283c49,-24 69,-28 142,-28c73,0 94,4 147,29c73,33 144,104 176,174c30,67 31,198 0,264c-30,66 -105,143 -170,175c-73,35 -185,42 -260,15z"></path><path d="M196,1905c-76,-27 -139,-96 -156,-170c-10,-44 88,-843 115,-931c17,-56 71,-126 119,-152c24,-13 65,-18 180,-22l149,-5l53,-231c54,-239 72,-290 121,-336c49,-47 91,-58 215,-58c132,0 172,14 230,78c54,59 63,104 49,232c-12,106 -97,664 -108,710c-16,69 -80,148 -136,169c-16,6 -69,11 -118,11c-56,0 -89,4 -89,11c0,5 -18,126 -40,267c-31,199 -46,269 -66,310c-28,57 -72,97 -131,118c-53,19 -334,18 -387,-1z"></path><path d="M1306,1899c-25,-20 -26,-23 -26,-139c0,-110 2,-121 22,-140c21,-20 32,-20 600,-20h578v-369v-369l-32,-7c-561,-122 -653,-144 -670,-165c-15,-18 -18,-42 -18,-132c0,-102 1,-110 25,-133c32,-33 78,-33 110,0c21,20 25,34 25,87v63l313,68c171,37 321,68 331,67c11,0 158,-30 328,-67l308,-67v-63c0,-54 4,-68 25,-88c32,-33 78,-33 110,0c24,23 25,31 25,133c0,90 -3,114 -18,131c-17,22 -46,29 -629,157l-73,16v369v369h578h579l21,23c20,21 22,34 22,139c0,114 -1,117 -26,137c-27,21 -28,21 -1254,21c-1226,0 -1227,0 -1254,-21z"></path><path d="M4513,1895c-54,-27 -94,-71 -119,-130c-12,-28 -94,-509 -94,-552c0,-7 -34,-12 -103,-15c-119,-3 -154,-20 -201,-92c-37,-57 -39,-67 -101,-486c-59,-392 -61,-430 -26,-498c49,-94 109,-122 263,-122c130,0 175,15 222,71c44,52 55,86 111,329l52,225l149,5c115,4 156,9 180,22c48,26 102,96 119,152c17,57 116,803 117,881c1,86 -47,166 -126,208c-37,20 -58,22 -216,25c-172,3 -176,3 -227,-23z"></path></g></g></g></g></g></svg>